name rise35.5848peak51.9257fall54.8793.mot
datacolumns 19
datarows 36
range 11.14495500000000 11.20329500000000
endheader
time	ground_force1_vx	ground_force1_vy	ground_force1_vz	ground_force1_px	ground_force1_py	ground_force1_pz	ground_force2_vx	ground_force2_vy	ground_force2_vz	ground_force2_px	ground_force2_py	ground_force2_pz	ground_torque1_x	ground_torque1_y	ground_torque1_z	ground_torque2_x	ground_torque2_y	ground_torque2_z	
11.14495500000000	-1.65412700000000	713.51065100000005	38.72055100000000	0.17286700000000	0.00000000000000	0.11328800000000	0.00000000000000	0.00000000000000	0.00000000000000	0.00000000000000	0.00000000000000	0.00000000000000	0.00000000000000	13.63094000000000	0.00000000000000	0.00000000000000	0.00000000000000	0.00000000000000	
11.14662100000000	-2.14022100000000	714.65606400000001	38.84966900000000	0.17179400000000	0.00000000000000	0.11335100000000	0.00000000000000	0.00000000000000	0.00000000000000	0.00000000000000	0.00000000000000	0.00000000000000	0.00000000000000	13.71466600000000	0.00000000000000	0.00000000000000	0.00000000000000	0.00000000000000	
11.14829000000000	-2.63844700000000	715.82027800000003	38.98550300000000	0.17071900000000	0.00000000000000	0.11341600000000	0.00000000000000	0.00000000000000	0.00000000000000	0.00000000000000	0.00000000000000	0.00000000000000	0.00000000000000	13.80336500000000	0.00000000000000	0.00000000000000	0.00000000000000	0.00000000000000	
11.14995200000000	-3.14876800000000	717.00212799999997	39.12776600000000	0.16964300000000	0.00000000000000	0.11348100000000	0.00000000000000	0.00000000000000	0.00000000000000	0.00000000000000	0.00000000000000	0.00000000000000	0.00000000000000	13.89692300000000	0.00000000000000	0.00000000000000	0.00000000000000	0.00000000000000	
11.15161700000000	-3.67111100000000	718.20050200000003	39.27617200000000	0.16856600000000	0.00000000000000	0.11354700000000	0.00000000000000	0.00000000000000	0.00000000000000	0.00000000000000	0.00000000000000	0.00000000000000	0.00000000000000	13.99522300000000	0.00000000000000	0.00000000000000	0.00000000000000	0.00000000000000	
11.15329200000000	-4.20537900000000	719.41435000000001	39.43043400000000	0.16748900000000	0.00000000000000	0.11361400000000	0.00000000000000	0.00000000000000	0.00000000000000	0.00000000000000	0.00000000000000	0.00000000000000	0.00000000000000	14.09814000000000	0.00000000000000	0.00000000000000	0.00000000000000	0.00000000000000	
11.15495800000000	-4.75143900000000	720.64268000000004	39.59026800000000	0.16641300000000	0.00000000000000	0.11368200000000	0.00000000000000	0.00000000000000	0.00000000000000	0.00000000000000	0.00000000000000	0.00000000000000	0.00000000000000	14.20554800000000	0.00000000000000	0.00000000000000	0.00000000000000	0.00000000000000	
11.15662300000000	-5.30913100000000	721.88456099999996	39.75539100000000	0.16533900000000	0.00000000000000	0.11375100000000	0.00000000000000	0.00000000000000	0.00000000000000	0.00000000000000	0.00000000000000	0.00000000000000	0.00000000000000	14.31731500000000	0.00000000000000	0.00000000000000	0.00000000000000	0.00000000000000	
11.15828700000000	-5.87826800000000	723.13912300000004	39.92552300000000	0.16426600000000	0.00000000000000	0.11382000000000	0.00000000000000	0.00000000000000	0.00000000000000	0.00000000000000	0.00000000000000	0.00000000000000	0.00000000000000	14.43330400000000	0.00000000000000	0.00000000000000	0.00000000000000	0.00000000000000	
11.15995100000000	-6.45863100000000	724.40556200000003	40.10038800000000	0.16319600000000	0.00000000000000	0.11389000000000	0.00000000000000	0.00000000000000	0.00000000000000	0.00000000000000	0.00000000000000	0.00000000000000	0.00000000000000	14.55337300000000	0.00000000000000	0.00000000000000	0.00000000000000	0.00000000000000	
11.16162200000000	-7.04997400000000	725.68313599999999	40.27971300000000	0.16212800000000	0.00000000000000	0.11396100000000	0.00000000000000	0.00000000000000	0.00000000000000	0.00000000000000	0.00000000000000	0.00000000000000	0.00000000000000	14.67737800000000	0.00000000000000	0.00000000000000	0.00000000000000	0.00000000000000	
11.16329800000000	-7.65202700000000	726.97116600000004	40.46322700000000	0.16106500000000	0.00000000000000	0.11403300000000	0.00000000000000	0.00000000000000	0.00000000000000	0.00000000000000	0.00000000000000	0.00000000000000	0.00000000000000	14.80516700000000	0.00000000000000	0.00000000000000	0.00000000000000	0.00000000000000	
11.16495600000000	-8.26449100000000	728.26903900000002	40.65066900000000	0.16000500000000	0.00000000000000	0.11410500000000	0.00000000000000	0.00000000000000	0.00000000000000	0.00000000000000	0.00000000000000	0.00000000000000	0.00000000000000	14.93658600000000	0.00000000000000	0.00000000000000	0.00000000000000	0.00000000000000	
11.16662400000000	-8.88704300000000	729.57620599999996	40.84177800000000	0.15894900000000	0.00000000000000	0.11417800000000	0.00000000000000	0.00000000000000	0.00000000000000	0.00000000000000	0.00000000000000	0.00000000000000	0.00000000000000	15.07147500000000	0.00000000000000	0.00000000000000	0.00000000000000	0.00000000000000	
11.16829000000000	-9.51933400000000	730.89218000000005	41.03630500000000	0.15789900000000	0.00000000000000	0.11425200000000	0.00000000000000	0.00000000000000	0.00000000000000	0.00000000000000	0.00000000000000	0.00000000000000	0.00000000000000	15.20967000000000	0.00000000000000	0.00000000000000	0.00000000000000	0.00000000000000	
11.16995100000000	-10.16099400000000	732.21653700000002	41.23400300000000	0.15685300000000	0.00000000000000	0.11432700000000	0.00000000000000	0.00000000000000	0.00000000000000	0.00000000000000	0.00000000000000	0.00000000000000	0.00000000000000	15.35100400000000	0.00000000000000	0.00000000000000	0.00000000000000	0.00000000000000	
11.17162200000000	-10.81162800000000	733.54891599999996	41.43463700000000	0.15581300000000	0.00000000000000	0.11440300000000	0.00000000000000	0.00000000000000	0.00000000000000	0.00000000000000	0.00000000000000	0.00000000000000	0.00000000000000	15.49530400000000	0.00000000000000	0.00000000000000	0.00000000000000	0.00000000000000	
11.17329800000000	-11.47082100000000	734.88901499999997	41.63797700000000	0.15477900000000	0.00000000000000	0.11447900000000	0.00000000000000	0.00000000000000	0.00000000000000	0.00000000000000	0.00000000000000	0.00000000000000	0.00000000000000	15.64239300000000	0.00000000000000	0.00000000000000	0.00000000000000	0.00000000000000	
11.17495500000000	-12.13813500000000	736.23659199999997	41.84380400000000	0.15375000000000	0.00000000000000	0.11455600000000	0.00000000000000	0.00000000000000	0.00000000000000	0.00000000000000	0.00000000000000	0.00000000000000	0.00000000000000	15.79209200000000	0.00000000000000	0.00000000000000	0.00000000000000	0.00000000000000	
11.17662100000000	-12.81311500000000	737.59146099999998	42.05190900000000	0.15272900000000	0.00000000000000	0.11463400000000	0.00000000000000	0.00000000000000	0.00000000000000	0.00000000000000	0.00000000000000	0.00000000000000	0.00000000000000	15.94421500000000	0.00000000000000	0.00000000000000	0.00000000000000	0.00000000000000	
11.17828300000000	-13.49528500000000	738.95348999999999	42.26209300000000	0.15171300000000	0.00000000000000	0.11471300000000	0.00000000000000	0.00000000000000	0.00000000000000	0.00000000000000	0.00000000000000	0.00000000000000	0.00000000000000	16.09857400000000	0.00000000000000	0.00000000000000	0.00000000000000	0.00000000000000	
11.17994900000000	-14.18415200000000	740.32260199999996	42.47416700000000	0.15070400000000	0.00000000000000	0.11479200000000	0.00000000000000	0.00000000000000	0.00000000000000	0.00000000000000	0.00000000000000	0.00000000000000	0.00000000000000	16.25497900000000	0.00000000000000	0.00000000000000	0.00000000000000	0.00000000000000	
11.18161500000000	-14.87920500000000	741.69876599999998	42.68795600000000	0.14970200000000	0.00000000000000	0.11487200000000	0.00000000000000	0.00000000000000	0.00000000000000	0.00000000000000	0.00000000000000	0.00000000000000	0.00000000000000	16.41323300000000	0.00000000000000	0.00000000000000	0.00000000000000	0.00000000000000	
11.18328500000000	-15.57992000000000	743.08200199999999	42.90329600000000	0.14870600000000	0.00000000000000	0.11495300000000	0.00000000000000	0.00000000000000	0.00000000000000	0.00000000000000	0.00000000000000	0.00000000000000	0.00000000000000	16.57313900000000	0.00000000000000	0.00000000000000	0.00000000000000	0.00000000000000	
11.18495500000000	-16.28575500000000	744.47236899999996	43.12003600000000	0.14771800000000	0.00000000000000	0.11503400000000	0.00000000000000	0.00000000000000	0.00000000000000	0.00000000000000	0.00000000000000	0.00000000000000	0.00000000000000	16.73449400000000	0.00000000000000	0.00000000000000	0.00000000000000	0.00000000000000	
11.18661800000000	-16.99615500000000	745.86996899999997	43.33803900000000	0.14673600000000	0.00000000000000	0.11511600000000	0.00000000000000	0.00000000000000	0.00000000000000	0.00000000000000	0.00000000000000	0.00000000000000	0.00000000000000	16.89709600000000	0.00000000000000	0.00000000000000	0.00000000000000	0.00000000000000	
11.18830000000000	-17.71055400000000	747.27494000000002	43.55718100000000	0.14576100000000	0.00000000000000	0.11519900000000	0.00000000000000	0.00000000000000	0.00000000000000	0.00000000000000	0.00000000000000	0.00000000000000	0.00000000000000	17.06073700000000	0.00000000000000	0.00000000000000	0.00000000000000	0.00000000000000	
11.18995000000000	-18.42837300000000	748.68745100000001	43.77735300000000	0.14479300000000	0.00000000000000	0.11528200000000	0.00000000000000	0.00000000000000	0.00000000000000	0.00000000000000	0.00000000000000	0.00000000000000	0.00000000000000	17.22520700000000	0.00000000000000	0.00000000000000	0.00000000000000	0.00000000000000	
11.19161700000000	-19.14902200000000	750.10770100000002	43.99845700000000	0.14383200000000	0.00000000000000	0.11536500000000	0.00000000000000	0.00000000000000	0.00000000000000	0.00000000000000	0.00000000000000	0.00000000000000	0.00000000000000	17.39029700000000	0.00000000000000	0.00000000000000	0.00000000000000	0.00000000000000	
11.19329200000000	-19.87190300000000	751.53591200000005	44.22041500000000	0.14287700000000	0.00000000000000	0.11544900000000	0.00000000000000	0.00000000000000	0.00000000000000	0.00000000000000	0.00000000000000	0.00000000000000	0.00000000000000	17.55579200000000	0.00000000000000	0.00000000000000	0.00000000000000	0.00000000000000	
11.19495000000000	-20.59640700000000	752.97232499999996	44.44315900000000	0.14192800000000	0.00000000000000	0.11553400000000	0.00000000000000	0.00000000000000	0.00000000000000	0.00000000000000	0.00000000000000	0.00000000000000	0.00000000000000	17.72147900000000	0.00000000000000	0.00000000000000	0.00000000000000	0.00000000000000	
11.19662200000000	-21.32192100000000	754.41719699999999	44.66663600000000	0.14098600000000	0.00000000000000	0.11561800000000	0.00000000000000	0.00000000000000	0.00000000000000	0.00000000000000	0.00000000000000	0.00000000000000	0.00000000000000	17.88714100000000	0.00000000000000	0.00000000000000	0.00000000000000	0.00000000000000	
11.19829300000000	-22.04782300000000	755.87079400000005	44.89081100000000	0.14005100000000	0.00000000000000	0.11570300000000	0.00000000000000	0.00000000000000	0.00000000000000	0.00000000000000	0.00000000000000	0.00000000000000	0.00000000000000	18.05256200000000	0.00000000000000	0.00000000000000	0.00000000000000	0.00000000000000	
11.19994900000000	-22.77348700000000	757.33338700000002	45.11565800000000	0.13912100000000	0.00000000000000	0.11578900000000	0.00000000000000	0.00000000000000	0.00000000000000	0.00000000000000	0.00000000000000	0.00000000000000	0.00000000000000	18.21752500000000	0.00000000000000	0.00000000000000	0.00000000000000	0.00000000000000	
11.20162100000000	-23.49828400000000	758.80524600000001	45.34116800000000	0.13819800000000	0.00000000000000	0.11587400000000	0.00000000000000	0.00000000000000	0.00000000000000	0.00000000000000	0.00000000000000	0.00000000000000	0.00000000000000	18.38181200000000	0.00000000000000	0.00000000000000	0.00000000000000	0.00000000000000	
11.20329500000000	-24.22157900000000	760.28663800000004	45.56734500000000	0.13728000000000	0.00000000000000	0.11596000000000	0.00000000000000	0.00000000000000	0.00000000000000	0.00000000000000	0.00000000000000	0.00000000000000	0.00000000000000	18.54520600000000	0.00000000000000	0.00000000000000	0.00000000000000	0.00000000000000	
